<mxfile host="app.diagrams.net" modified="2023-11-03T09:40:02.249Z" agent="Mozilla/5.0 (Macintosh; Intel Mac OS X 10_15_7) AppleWebKit/605.1.15 (KHTML, like Gecko) Version/15.5 Safari/605.1.15" etag="ryzFvu3PdLe149iOMBqM" version="22.0.8" type="google">
  <diagram name="Page-1" id="beZD7wqWVQxjQfumyW3a">
    <mxGraphModel grid="1" page="1" gridSize="10" guides="1" tooltips="1" connect="1" arrows="1" fold="1" pageScale="1" pageWidth="827" pageHeight="1169" math="0" shadow="0">
      <root>
        <mxCell id="0" />
        <mxCell id="1" parent="0" />
        <mxCell id="eMffjGEJd-unX-67wTVi-7" value="" style="edgeStyle=orthogonalEdgeStyle;rounded=0;orthogonalLoop=1;jettySize=auto;html=1;" edge="1" parent="1" source="eMffjGEJd-unX-67wTVi-1" target="eMffjGEJd-unX-67wTVi-3">
          <mxGeometry relative="1" as="geometry" />
        </mxCell>
        <mxCell id="eMffjGEJd-unX-67wTVi-1" value="LSTM&lt;br&gt;h&lt;sub style=&quot;border-color: var(--border-color); text-align: start;&quot;&gt;1&lt;/sub&gt;" style="rounded=0;whiteSpace=wrap;html=1;fillColor=#d5e8d4;strokeColor=#82b366;" vertex="1" parent="1">
          <mxGeometry x="130" y="280" width="40" height="80" as="geometry" />
        </mxCell>
        <mxCell id="eMffjGEJd-unX-67wTVi-6" value="" style="edgeStyle=orthogonalEdgeStyle;rounded=0;orthogonalLoop=1;jettySize=auto;html=1;" edge="1" parent="1" target="eMffjGEJd-unX-67wTVi-1">
          <mxGeometry relative="1" as="geometry">
            <mxPoint x="80" y="320" as="sourcePoint" />
          </mxGeometry>
        </mxCell>
        <mxCell id="eMffjGEJd-unX-67wTVi-17" value="" style="edgeStyle=orthogonalEdgeStyle;rounded=0;orthogonalLoop=1;jettySize=auto;html=1;" edge="1" parent="1" source="eMffjGEJd-unX-67wTVi-3" target="eMffjGEJd-unX-67wTVi-16">
          <mxGeometry relative="1" as="geometry" />
        </mxCell>
        <mxCell id="eMffjGEJd-unX-67wTVi-3" value="Dense&lt;br&gt;d&lt;sub style=&quot;border-color: var(--border-color); font-family: Calibri, sans-serif; text-align: start;&quot;&gt;1&lt;/sub&gt;" style="rounded=0;whiteSpace=wrap;html=1;fillColor=#d5e8d4;strokeColor=#82b366;" vertex="1" parent="1">
          <mxGeometry x="200" y="280" width="40" height="80" as="geometry" />
        </mxCell>
        <mxCell id="eMffjGEJd-unX-67wTVi-9" value="" style="edgeStyle=orthogonalEdgeStyle;rounded=0;orthogonalLoop=1;jettySize=auto;html=1;" edge="1" parent="1" source="eMffjGEJd-unX-67wTVi-4" target="eMffjGEJd-unX-67wTVi-5">
          <mxGeometry relative="1" as="geometry" />
        </mxCell>
        <mxCell id="eMffjGEJd-unX-67wTVi-4" value="LSTM&lt;br&gt;h&lt;sub style=&quot;border-color: var(--border-color); text-align: start;&quot;&gt;n&lt;/sub&gt;" style="rounded=0;whiteSpace=wrap;html=1;fillColor=#d5e8d4;strokeColor=#82b366;" vertex="1" parent="1">
          <mxGeometry x="361" y="280" width="40" height="80" as="geometry" />
        </mxCell>
        <mxCell id="eMffjGEJd-unX-67wTVi-23" value="" style="edgeStyle=orthogonalEdgeStyle;rounded=0;orthogonalLoop=1;jettySize=auto;html=1;" edge="1" parent="1" source="eMffjGEJd-unX-67wTVi-5" target="eMffjGEJd-unX-67wTVi-21">
          <mxGeometry relative="1" as="geometry" />
        </mxCell>
        <mxCell id="eMffjGEJd-unX-67wTVi-5" value="Dense&lt;br&gt;d&lt;sub style=&quot;border-color: var(--border-color); text-align: start;&quot;&gt;n&lt;/sub&gt;" style="rounded=0;whiteSpace=wrap;html=1;fillColor=#d5e8d4;strokeColor=#82b366;" vertex="1" parent="1">
          <mxGeometry x="431" y="280" width="40" height="80" as="geometry" />
        </mxCell>
        <mxCell id="eMffjGEJd-unX-67wTVi-10" value="&lt;font style=&quot;font-size: 12px;&quot;&gt;Dense&lt;br&gt;y&lt;br&gt;&lt;/font&gt;" style="rounded=0;whiteSpace=wrap;html=1;fillColor=#dae8fc;strokeColor=#6c8ebf;" vertex="1" parent="1">
          <mxGeometry x="550" y="280" width="40" height="80" as="geometry" />
        </mxCell>
        <mxCell id="eMffjGEJd-unX-67wTVi-16" value="+" style="ellipse;whiteSpace=wrap;html=1;aspect=fixed;fillColor=#fff2cc;strokeColor=#d6b656;" vertex="1" parent="1">
          <mxGeometry x="260" y="310" width="20" height="20" as="geometry" />
        </mxCell>
        <mxCell id="eMffjGEJd-unX-67wTVi-25" style="edgeStyle=orthogonalEdgeStyle;rounded=0;orthogonalLoop=1;jettySize=auto;html=1;exitX=1;exitY=0.5;exitDx=0;exitDy=0;entryX=0;entryY=0.5;entryDx=0;entryDy=0;" edge="1" parent="1" source="eMffjGEJd-unX-67wTVi-21" target="eMffjGEJd-unX-67wTVi-10">
          <mxGeometry relative="1" as="geometry" />
        </mxCell>
        <mxCell id="eMffjGEJd-unX-67wTVi-21" value="+" style="ellipse;whiteSpace=wrap;html=1;aspect=fixed;fillColor=#fff2cc;strokeColor=#d6b656;" vertex="1" parent="1">
          <mxGeometry x="488" y="310" width="20" height="20" as="geometry" />
        </mxCell>
        <mxCell id="yUIZ75r0WlNd-biSbqI2-1" value="" style="endArrow=none;dashed=1;html=1;rounded=0;" edge="1" parent="1">
          <mxGeometry width="50" height="50" relative="1" as="geometry">
            <mxPoint x="300" y="320" as="sourcePoint" />
            <mxPoint x="330" y="320" as="targetPoint" />
            <Array as="points" />
          </mxGeometry>
        </mxCell>
        <mxCell id="yUIZ75r0WlNd-biSbqI2-4" value="" style="endArrow=classic;html=1;rounded=0;" edge="1" parent="1">
          <mxGeometry width="50" height="50" relative="1" as="geometry">
            <mxPoint x="350" y="310" as="sourcePoint" />
            <mxPoint x="350" y="310" as="targetPoint" />
          </mxGeometry>
        </mxCell>
        <mxCell id="B34nDivzmpkZCsmACQ4i-2" value="&lt;font style=&quot;font-size: 12px;&quot;&gt;Input&lt;br&gt;&lt;span style=&quot;text-align: start;&quot;&gt;&lt;b&gt;x&lt;/b&gt;&lt;br&gt;&lt;/span&gt;&lt;/font&gt;" style="rounded=0;whiteSpace=wrap;html=1;fillColor=#ffe6cc;strokeColor=#d79b00;" vertex="1" parent="1">
          <mxGeometry x="50" y="290" width="50" height="60" as="geometry" />
        </mxCell>
        <mxCell id="rXOSPL4vJwDAF2UdjB3A-2" value="" style="endArrow=classic;html=1;rounded=0;exitX=1;exitY=0.5;exitDx=0;exitDy=0;" edge="1" parent="1" source="eMffjGEJd-unX-67wTVi-16">
          <mxGeometry width="50" height="50" relative="1" as="geometry">
            <mxPoint x="340" y="350" as="sourcePoint" />
            <mxPoint x="300" y="320" as="targetPoint" />
          </mxGeometry>
        </mxCell>
        <mxCell id="rXOSPL4vJwDAF2UdjB3A-3" value="" style="endArrow=classic;html=1;rounded=0;entryX=0;entryY=0.5;entryDx=0;entryDy=0;" edge="1" parent="1" target="eMffjGEJd-unX-67wTVi-4">
          <mxGeometry width="50" height="50" relative="1" as="geometry">
            <mxPoint x="330" y="320" as="sourcePoint" />
            <mxPoint x="363" y="300" as="targetPoint" />
          </mxGeometry>
        </mxCell>
        <mxCell id="MClimU6w4cAE9dbXcwet-1" value="" style="endArrow=classic;html=1;rounded=0;exitX=0.5;exitY=0;exitDx=0;exitDy=0;entryX=0.5;entryY=0;entryDx=0;entryDy=0;" edge="1" parent="1" source="B34nDivzmpkZCsmACQ4i-2" target="eMffjGEJd-unX-67wTVi-16">
          <mxGeometry width="50" height="50" relative="1" as="geometry">
            <mxPoint x="350" y="360" as="sourcePoint" />
            <mxPoint x="400" y="240" as="targetPoint" />
            <Array as="points">
              <mxPoint x="75" y="260" />
              <mxPoint x="270" y="260" />
            </Array>
          </mxGeometry>
        </mxCell>
        <mxCell id="MClimU6w4cAE9dbXcwet-2" value="" style="endArrow=classic;html=1;rounded=0;exitX=0.5;exitY=0;exitDx=0;exitDy=0;entryX=0.5;entryY=0;entryDx=0;entryDy=0;" edge="1" parent="1" source="B34nDivzmpkZCsmACQ4i-2" target="eMffjGEJd-unX-67wTVi-21">
          <mxGeometry width="50" height="50" relative="1" as="geometry">
            <mxPoint x="60" y="250" as="sourcePoint" />
            <mxPoint x="255" y="270" as="targetPoint" />
            <Array as="points">
              <mxPoint x="75" y="220" />
              <mxPoint x="498" y="220" />
            </Array>
          </mxGeometry>
        </mxCell>
        <mxCell id="MClimU6w4cAE9dbXcwet-3" value="" style="endArrow=classic;html=1;rounded=0;exitX=0.5;exitY=0;exitDx=0;exitDy=0;" edge="1" parent="1" source="B34nDivzmpkZCsmACQ4i-2">
          <mxGeometry width="50" height="50" relative="1" as="geometry">
            <mxPoint x="60" y="270" as="sourcePoint" />
            <mxPoint x="310" y="310" as="targetPoint" />
            <Array as="points">
              <mxPoint x="75" y="240" />
              <mxPoint x="310" y="240" />
              <mxPoint x="310" y="280" />
            </Array>
          </mxGeometry>
        </mxCell>
        <mxCell id="MClimU6w4cAE9dbXcwet-4" value="&lt;p style=&quot;margin: 0cm; text-align: start;&quot; class=&quot;MsoNormal&quot;&gt;&lt;b&gt;W&lt;/b&gt;&lt;sub&gt;1&lt;/sub&gt;&lt;sup&gt;(h)&lt;font face=&quot;Calibri, sans-serif&quot;&gt;&lt;/font&gt;&lt;/sup&gt;&lt;/p&gt;" style="text;html=1;strokeColor=none;fillColor=none;align=center;verticalAlign=middle;whiteSpace=wrap;rounded=0;" vertex="1" parent="1">
          <mxGeometry x="100" y="300" width="30" height="20" as="geometry" />
        </mxCell>
        <mxCell id="MClimU6w4cAE9dbXcwet-5" value="&lt;p style=&quot;margin: 0cm; text-align: start;&quot; class=&quot;MsoNormal&quot;&gt;W&lt;sub&gt;1&lt;/sub&gt;&lt;sup&gt;(d)&lt;font face=&quot;Calibri, sans-serif&quot;&gt;&lt;/font&gt;&lt;/sup&gt;&lt;/p&gt;" style="text;html=1;strokeColor=none;fillColor=none;align=center;verticalAlign=middle;whiteSpace=wrap;rounded=0;" vertex="1" parent="1">
          <mxGeometry x="170" y="300" width="30" height="20" as="geometry" />
        </mxCell>
        <mxCell id="MClimU6w4cAE9dbXcwet-6" value="&lt;p style=&quot;margin: 0cm; text-align: start;&quot; class=&quot;MsoNormal&quot;&gt;W&lt;sub&gt;n&lt;/sub&gt;&lt;sup&gt;(d)&lt;font face=&quot;Calibri, sans-serif&quot;&gt;&lt;/font&gt;&lt;/sup&gt;&lt;/p&gt;" style="text;html=1;strokeColor=none;fillColor=none;align=center;verticalAlign=middle;whiteSpace=wrap;rounded=0;" vertex="1" parent="1">
          <mxGeometry x="401" y="300" width="30" height="20" as="geometry" />
        </mxCell>
        <mxCell id="MClimU6w4cAE9dbXcwet-7" value="&lt;p style=&quot;margin: 0cm; text-align: start;&quot; class=&quot;MsoNormal&quot;&gt;&lt;b&gt;W&lt;/b&gt;&lt;sub&gt;n&lt;/sub&gt;&lt;sup&gt;(h)&lt;font face=&quot;Calibri, sans-serif&quot;&gt;&lt;/font&gt;&lt;/sup&gt;&lt;/p&gt;" style="text;html=1;strokeColor=none;fillColor=none;align=center;verticalAlign=middle;whiteSpace=wrap;rounded=0;" vertex="1" parent="1">
          <mxGeometry x="321" y="300" width="40" height="20" as="geometry" />
        </mxCell>
        <mxCell id="MClimU6w4cAE9dbXcwet-12" value="&lt;p style=&quot;margin: 0cm; text-align: start;&quot; class=&quot;MsoNormal&quot;&gt;W&lt;sub&gt;n+1&lt;/sub&gt;&lt;sup&gt;(d)&lt;font face=&quot;Calibri, sans-serif&quot;&gt;&lt;/font&gt;&lt;/sup&gt;&lt;/p&gt;" style="text;html=1;strokeColor=none;fillColor=none;align=center;verticalAlign=middle;whiteSpace=wrap;rounded=0;" vertex="1" parent="1">
          <mxGeometry x="510" y="300" width="40" height="20" as="geometry" />
        </mxCell>
      </root>
    </mxGraphModel>
  </diagram>
</mxfile>
